<svg id="683d3690-e1ab-45db-97b8-9484a1649262" data-name="Layer 1" xmlns="http://www.w3.org/2000/svg" xmlns:xlink="http://www.w3.org/1999/xlink" width="839.2" height="727.08" viewBox="0 0 839.2 727.08">
  <title>happy birthday</title>
  
  <!-- Path with gradient stroke (updated to light blue) -->
  <path d="M637.45,372.4c-9.72,13.55-19.81,28.12-20.64,44.78-1.27,25.59,19.2,46.52,28.34,70.46a83.74,83.74,0,0,1-2.81,65.5c-4.46,9.22-10.82,18.38-10,28.59.47,6.23,3.59,11.9,6.1,17.63a99.4,99.4,0,0,1-5.77,89.75" transform="translate(-180.4 -86.46)" fill="none" stroke="#ADD8E6" stroke-miterlimit="10" stroke-width="2"/>

  <!-- Second path with solid stroke (updated to light blue) -->
  <path d="M638.65,372.4C628.94,386,618.85,400.53,618,417.18c-1.27,25.59,19.2,46.52,28.34,70.46a83.74,83.74,0,0,1-2.81,65.5c-4.46,9.22-10.82,18.38-10,28.59.47,6.23,3.59,11.9,6.1,17.63a99.4,99.4,0,0,1-5.77,89.75" transform="translate(-180.4 -86.46)" fill="none" stroke="#ADD8E6" stroke-miterlimit="10" stroke-width="2"/>

  <!-- Polygon (updated to light blue) -->
  <polygon points="468.43 293.56 441.95 293.56 446.59 277.68 462.47 277.68 468.43 293.56" fill="#ADD8E6"/>

  <!-- Main path (updated to light blue) -->
  <path d="M744.79,212.58c0,60.68-49.19,149.57-109.86,149.57s-109.86-88.9-109.86-149.57a109.86,109.86,0,0,1,219.73,0Z" transform="translate(-180.4 -86.46)" fill="#ADD8E6"/>

  <!-- Another polygon (updated to light blue) -->
  <polygon points="462.47 278.34 446.59 278.34 437.32 273.04 471.74 273.04 462.47 278.34" fill="#ADD8E6"/>

  <!-- White path (remains unchanged) -->
  <path d="M595.22,127.2s-46.33,25.15-52.95,75.45" transform="translate(-180.4 -86.46)" fill="#fff" opacity="0.1"/>
</svg>
